<svg viewBox="0 0 256 256" fill="none" xmlns="http://www.w3.org/2000/svg"><svg xmlns="http://www.w3.org/2000/svg" viewBox="0 0 256 256"><rect width="256" height="256" fill="#F4F2ED" rx="60"/><g clip-path="url(#a)"><path fill="#00678C" fill-rule="evenodd" d="M203.8 178.2c-9.8-.3-17.4.7-23.7 3.4-1.9.8-4.8.8-5 3 1 1 1 2.6 1.9 4 1.5 2.4 4 5.7 6.4 7.4l7.8 5.6c4.8 2.9 10.2 4.6 14.8 7.5 2.7 1.7 5.4 4 8 5.7 1.5 1 2.3 2.6 4 3.2v-.4c-.9-1-1.1-2.6-2-3.9l-3.6-3.5c-3.6-4.7-8-8.9-12.8-12.3-3.9-2.7-12.4-6.3-14-10.8l-.3-.3c2.7-.2 5.9-1.2 8.5-2 4.1-1 8-.8 12.2-1.9l5.9-1.7v-1c-2.2-2.3-3.8-5.2-6.1-7.2a163 163 0 0 0-20.2-15c-3.8-2.4-8.7-4-12.8-6-1.4-.8-3.9-1.2-4.7-2.4-2.3-2.7-3.5-6.2-5-9.4L153 119.1c-2.2-4.8-3.6-9.5-6.2-14a123 123 0 0 0-47.4-45.4c-4.6-2.6-10-3.7-15.7-5l-9.1-.5c-2-.8-4-3.2-5.7-4.2-7-4.4-25-14-30.1-1.4-3.3 7.9 4.9 15.7 7.7 19.7 2 2.8 4.8 6 6.2 9.1.9 2 1.1 4.3 2 6.5 2 5.3 3.8 11.3 6.4 16.3 1.3 2.5 2.8 5.2 4.5 7.5 1 1.4 2.7 2 3 4.2-1.7 2.4-1.8 6-2.8 9a53.4 53.4 0 0 0 3.6 41c2 3 6.6 9.7 12.8 7.2 5.5-2.2 4.3-9.2 6-15.2.3-1.5 0-2.5.8-3.5v.3l5 10.1c3.8 6 10.4 12.2 15.9 16.3 3 2.2 5.3 6 9 7.3v-.3h-.3c-.7-1.1-1.8-1.6-2.8-2.5a59.4 59.4 0 0 1-6.4-7.3c-5.1-6.8-9.7-14.3-13.7-22.1-2-3.8-3.7-8-5.3-11.7-.7-1.5-.7-3.7-2-4.4-1.8 2.7-4.5 5-5.8 8.3-2.3 5.2-2.6 11.7-3.4 18.4-.5 0-.3 0-.5.2-4-1-5.3-5-6.8-8.4a52.3 52.3 0 0 1-1-32.4c.8-2.6 4.5-10.6 3-13-.7-2.4-3.2-3.7-4.5-5.5a49 49 0 0 1-4.4-7.8c-3-6.8-4.4-14.4-7.6-21.2-1.5-3.1-4-6.4-6.1-9.4-2.4-3.2-5-5.5-6.8-9.4-.6-1.4-1.4-3.6-.5-5 .3-1 .8-1.4 1.7-1.6 1.6-1.4 6.2.4 7.8 1 4.5 2 8.3 3.6 12 6.2 1.8 1.2 3.6 3.5 5.8 4.1H74c4 .8 8.3.3 12 1.4 6.5 2 12.4 5 17.6 8.4 16 10 29.3 24.4 38.2 41.6 1.5 2.8 2.1 5.3 3.5 8.2 2.5 6 5.7 12 8.3 18 2.6 5.7 5 11.5 8.7 16.2 1.8 2.6 9.2 4 12.5 5.3 2.4 1 6.2 2 8.4 3.4 4.2 2.5 8.3 5.5 12.2 8.3 2 1.4 8.1 4.4 8.5 6.9ZM79 72.5c-1.7 0-3.4.2-5 .6v.3h.2c1 2 2.7 3.3 3.9 5l2.8 5.8.3-.3c1.7-1.2 2.5-3.1 2.5-6-.7-1-.8-1.8-1.4-2.6-.8-1.2-2.4-1.8-3.3-2.8Z" clip-rule="evenodd"/></g><defs><clipPath id="a"><path fill="#fff" transform="translate(38 38)" d="M0 0H180V180H0z"/></clipPath></defs></svg></svg>