<svg viewBox="0 0 256 256" fill="none" xmlns="http://www.w3.org/2000/svg"><svg viewBox="0 0 256 256" xmlns="http://www.w3.org/2000/svg"><rect width="256" height="256" rx="60" fill="#F4F2ED"/><path d="M209.5 171.8c-24.6 32.8-77.2 21.7-110.9 23.3 0 0-6 .4-12 1.4 0 0 2.3-1 5.2-2 23.7-8.2 34.9-9.8 49.3-17.2 27-13.9 54-44 59.4-75.4-10.3 30.2-41.6 56.1-70 66.6-19.6 7.2-54.9 14.2-54.9 14.2l-1.4-.7c-24-11.7-24.7-63.6 18.9-80.4 19.1-7.3 37.4-3.3 58-8.2 22-5.2 47.5-21.8 58-43.3 11.5 34.4 25.5 88.4.4 121.7Zm.5-132.4a92 92 0 0 1-10.7 18.8A100 100 0 1 0 60 201l2.3 2 1.4 1.3A100 100 0 0 0 227.4 135c2.8-25.3-4.7-57.5-17.4-95.7Z" fill="#5FB832"/></svg></svg>