<svg fill="none" viewBox="0 0 256 256" xmlns="http://www.w3.org/2000/svg"><svg viewBox="0 0 256 256" xmlns="http://www.w3.org/2000/svg"><rect width="256" height="256" rx="60" fill="#F4F2ED"/><path d="M101.6 182.6s-7.6 4.7 5.4 6c15.7 2 24 1.7 41.4-1.6 0 0 4.7 3 11 5.3-39 16.7-88.5-1-57.8-9.7zm-5-21.7s-8.3 6.4 4.7 7.7c17 1.7 30.4 2 53.4-2.7 0 0 3 3.4 8 5-47 14-99.8 1.4-66-10zm92.2 38s5.7 4.8-6.4 8.4c-22.3 6.7-93.8 8.7-113.8 0-7-3 6.3-7.3 10.7-8 4.3-1 6.6-1 6.6-1-7.7-5.3-51 11-22 15.7 79.8 13 145.6-5.6 124.9-15zm-83.5-60.7s-36.4 8.7-13 11.7c10 1.3 29.7 1 48-.3 15-1.4 30.2-4 30.2-4s-5.4 2.3-9 4.6c-37.2 9.7-108.3 5.4-88-4.6 17.4-8.4 31.8-7.4 31.8-7.4zm65.1 36.4c37.4-19.4 20-38 8-35.7-3 .6-4.3 1.3-4.3 1.3s1-2 3.3-2.7c23.7-8.3 42.4 25-7.6 38.1 0 0 .3-.3.6-1zM109 227.4c36 2.3 91.1-1.4 92.5-18.4 0 0-2.7 6.7-29.7 11.7-30.8 5.7-68.8 5-91.2 1.3 0 0 4.7 4 28.4 5.4z" fill="#4E7896"/><path d="M147.7 28s20.7 21-19.7 52.8c-32.4 25.7-7.4 40.4 0 57-19-17-32.7-32-23.4-46C118.3 71 156.1 61 147.6 28zM137 123.8c9.7 11-2.7 21-2.7 21s24.7-12.6 13.4-28.3c-10.4-15-18.4-22.4 25-47.4 0 0-68.4 17-35.7 54.7z" fill="#F58219"/></svg></svg>