<?xml version="1.0" standalone="no"?>
<!DOCTYPE svg PUBLIC "-//W3C//DTD SVG 20010904//EN"
 "http://www.w3.org/TR/2001/REC-SVG-20010904/DTD/svg10.dtd">
<svg version="1.0" xmlns="http://www.w3.org/2000/svg"
 width="450.000000pt" height="450.000000pt" viewBox="0 0 450.000000 450.000000"
 preserveAspectRatio="xMidYMid meet">
<metadata>
Created by potrace 1.14, written by Peter Selinger 2001-2017
</metadata>
<g transform="translate(0.000000,450.000000) scale(0.100000,-0.100000)"
fill="#000000" stroke="none">
<path d="M2175 3774 c-33 -9 -67 -20 -75 -25 -8 -5 -47 -24 -87 -43 -105 -50
-183 -107 -295 -214 -168 -162 -206 -238 -253 -497 -16 -89 -29 -124 -107
-278 -47 -94 -75 -167 -87 -227 -5 -25 -16 -72 -26 -105 -53 -185 -55 -212
-21 -288 24 -55 82 -113 124 -124 18 -4 22 -10 17 -27 -3 -11 -8 -32 -10 -46
-2 -14 -11 -45 -20 -70 -9 -25 -19 -79 -22 -120 -5 -61 -11 -81 -33 -110 -67
-86 -49 -218 39 -283 30 -23 41 -41 61 -105 21 -67 32 -84 82 -133 32 -31 58
-60 58 -64 0 -4 7 -13 16 -20 11 -8 19 -34 23 -76 l7 -64 13 45 c17 60 9 122
-23 168 -14 21 -26 45 -26 54 0 9 -11 46 -25 82 -28 74 -28 76 -17 76 11 0
118 -141 126 -167 4 -12 2 -59 -4 -103 -11 -78 -7 -140 9 -140 9 0 59 156 61
190 4 55 -1 79 -25 115 -15 20 -23 40 -20 43 11 12 78 -33 101 -68 62 -95 46
-208 -42 -294 l-35 -34 23 -16 c29 -21 64 -20 113 3 91 42 140 123 138 230 -1
35 -7 77 -13 92 -20 48 -5 57 23 14 48 -74 44 -202 -8 -279 -26 -39 -22 -46
11 -18 53 44 65 77 80 220 7 75 20 178 28 227 l14 90 1 -65 c0 -36 -6 -105
-14 -155 -8 -49 -15 -109 -15 -133 0 -47 -31 -146 -54 -171 -10 -11 -12 -21
-6 -31 8 -13 14 -13 43 3 27 15 39 16 61 7 37 -14 82 0 124 39 39 34 96 156
112 239 l13 63 23 -57 c12 -31 33 -63 46 -72 13 -9 33 -27 45 -40 27 -29 55
-25 95 13 33 31 84 104 98 141 10 26 11 26 30 9 16 -15 22 -16 35 -5 23 19 15
56 -11 53 -19 -2 -20 3 -20 100 0 110 -13 164 -65 268 -38 76 -52 86 -92 70
-95 -40 -197 -71 -230 -71 -50 0 -103 28 -153 81 -22 24 -65 65 -96 91 -72 61
-178 193 -228 284 -42 77 -80 207 -80 276 0 42 30 108 49 108 16 0 30 -26 25
-47 -4 -15 3 -25 30 -41 39 -23 49 -18 59 35 6 29 3 35 -21 47 -25 12 -129 29
-118 19 2 -3 -3 -13 -12 -22 -9 -10 -22 -26 -27 -36 -10 -16 -13 -15 -43 14
-46 47 -43 63 13 60 24 -2 47 0 51 4 4 4 -18 7 -48 7 -52 0 -56 2 -61 25 -5
30 15 45 62 45 17 0 31 5 31 11 0 7 10 9 25 6 20 -3 25 -1 23 12 -4 20 -68 17
-110 -5 -48 -25 -49 -23 -44 109 9 206 15 244 46 326 38 99 55 120 122 155 29
16 61 35 70 43 15 13 18 12 29 -9 15 -29 77 -81 98 -83 9 -1 34 -7 56 -13 26
-7 51 -8 70 -3 29 9 29 9 5 11 -14 1 -33 2 -42 1 -10 -1 -26 3 -35 8 -14 8 -4
10 41 9 38 -1 61 3 64 10 2 7 13 12 25 12 20 0 20 0 1 -15 -18 -14 -17 -14 9
-5 36 13 70 13 62 0 -3 -5 0 -8 7 -5 7 2 29 1 48 -3 51 -11 46 -36 -10 -43
l-45 -6 46 -1 c28 -1 52 -8 59 -17 7 -9 15 -13 18 -11 3 3 17 -3 32 -14 18
-13 53 -22 99 -26 39 -4 71 -10 71 -14 0 -4 12 -5 26 -2 18 3 30 0 36 -12 5
-9 23 -23 40 -32 42 -22 65 -51 78 -97 6 -21 20 -53 31 -70 26 -43 24 -61 -8
-87 -20 -15 -22 -18 -6 -10 12 5 25 15 28 20 4 6 16 2 32 -10 14 -11 33 -20
42 -20 9 0 24 -7 34 -14 27 -21 99 6 134 50 16 19 43 51 61 71 l32 36 1 -64
c1 -42 3 -56 8 -39 l7 24 13 -31 c7 -18 19 -38 27 -44 22 -18 17 -46 -22 -128
-48 -103 -76 -131 -130 -131 -23 0 -46 -6 -51 -12 -32 -43 -78 -174 -101 -287
-15 -74 -30 -127 -36 -124 -5 4 -7 -1 -3 -10 3 -8 -1 -55 -9 -104 -26 -161
-14 -343 27 -427 12 -22 35 -55 51 -73 l31 -32 -25 -29 c-13 -16 -47 -56 -75
-88 -29 -32 -95 -111 -149 -174 -53 -63 -138 -160 -189 -215 -77 -84 -238
-269 -282 -325 -6 -8 -55 -71 -109 -138 l-97 -124 33 -61 c18 -34 38 -69 45
-77 6 -8 15 -24 19 -34 11 -31 28 -4 34 53 2 28 8 51 13 51 5 0 9 -7 9 -16 0
-13 5 -12 29 6 31 21 46 15 35 -17 -11 -29 -36 -53 -54 -53 -20 0 -30 -19 -30
-56 l0 -24 761 0 762 0 -7 43 c-10 64 -25 385 -26 530 l0 127 28 -7 c73 -19
159 7 230 71 22 20 45 49 52 65 6 16 40 51 74 79 86 69 132 127 187 239 27 54
49 89 52 81 4 -7 4 1 0 17 -3 17 -2 26 3 22 5 -5 14 14 21 45 l12 53 -3 -79
c-3 -70 -8 -88 -48 -165 -24 -48 -54 -91 -66 -97 -12 -6 -36 -30 -53 -53 -29
-41 -29 -43 -7 -36 28 9 72 39 112 74 100 91 144 276 96 404 -16 43 -35 68
-90 117 -63 55 -70 65 -70 99 0 53 -27 149 -56 199 -14 24 -54 73 -88 110 -35
37 -71 82 -81 101 -16 31 -39 151 -30 159 2 2 14 -4 27 -12 14 -9 67 -34 118
-56 104 -45 119 -57 161 -136 36 -69 40 -156 10 -234 -22 -59 -10 -67 18 -12
37 72 54 151 48 220 -12 121 -71 199 -222 297 -162 104 -215 174 -241 317 -35
204 -40 218 -103 301 -23 31 -59 61 -99 84 -86 48 -163 121 -195 185 -14 29
-38 97 -52 151 -35 133 -38 141 -102 229 -40 55 -80 95 -143 142 -95 72 -129
87 -236 106 -83 15 -424 9 -465 -8 -19 -7 -30 -7 -37 0 -18 18 -151 19 -217 2z
m-776 -1047 c-39 -101 -101 -229 -107 -223 -7 7 22 83 71 190 23 48 43 83 45
77 2 -7 -2 -26 -9 -44z m151 -427 c0 -5 -5 -10 -11 -10 -5 0 -7 5 -4 10 3 6 8
10 11 10 2 0 4 -4 4 -10z m183 -277 c-7 -2 -19 -2 -25 0 -7 3 -2 5 12 5 14 0
19 -2 13 -5z m2257 -134 c14 -18 37 -46 51 -63 29 -35 66 -123 55 -133 -11
-12 -83 67 -109 121 -48 98 -46 137 3 75z m-1627 -315 c4 -4 -4 -21 -16 -38
-12 -16 -28 -42 -35 -56 -12 -24 -12 -23 -8 14 7 56 39 100 59 80z m3 -167
c-8 -39 -18 -90 -22 -112 l-7 -40 -7 30 c-19 79 -8 167 29 225 l16 24 3 -27
c2 -15 -3 -60 -12 -100z m-872 -202 c31 -78 33 -94 7 -71 -31 28 -69 158 -42
142 5 -3 21 -35 35 -71z m732 -940 c8 -21 -23 -65 -45 -65 -11 0 -22 -6 -24
-12 -3 -7 -6 2 -6 20 -1 18 4 42 9 53 13 23 58 26 66 4z"/>
<path d="M2305 3090 c-3 -5 -1 -10 4 -10 6 0 11 5 11 10 0 6 -2 10 -4 10 -3 0
-8 -4 -11 -10z"/>
<path d="M1980 3071 c0 -9 30 -24 36 -18 2 1 -6 8 -16 15 -11 7 -20 8 -20 3z"/>
<path d="M2038 3043 c7 -3 16 -2 19 1 4 3 -2 6 -13 5 -11 0 -14 -3 -6 -6z"/>
<path d="M2150 3040 c-9 -6 -10 -10 -3 -10 6 0 15 5 18 10 8 12 4 12 -15 0z"/>
<path d="M2292 2795 c-40 -8 -98 -25 -130 -40 -81 -37 -162 -87 -156 -97 13
-20 76 -7 131 29 67 43 202 103 231 103 12 0 24 5 27 10 8 12 -10 11 -103 -5z"/>
<path d="M3122 2640 c0 -14 2 -19 5 -12 2 6 2 18 0 25 -3 6 -5 1 -5 -13z"/>
<path d="M2245 2640 c-3 -5 1 -10 9 -10 8 0 18 5 21 10 3 6 -1 10 -9 10 -8 0
-18 -4 -21 -10z"/>
<path d="M2358 2643 c28 -5 29 -19 1 -26 -12 -3 -22 0 -26 9 -3 8 -9 14 -15
14 -5 0 -7 -4 -3 -9 3 -5 -5 -13 -17 -17 -29 -9 -78 -43 -78 -54 0 -5 13 -2
30 6 31 16 51 12 46 -9 -1 -7 -1 -9 1 -4 3 4 10 7 17 7 9 0 13 -14 13 -40 0
-22 3 -43 6 -46 12 -12 76 -21 88 -13 11 7 10 9 -3 9 -10 0 -18 7 -18 15 0 8
7 15 15 15 8 0 15 -5 15 -11 0 -5 5 -7 10 -4 15 9 2 25 -20 25 -20 0 -36 17
-26 27 4 4 12 1 18 -5 17 -17 31 -15 24 3 -4 11 1 15 17 15 12 0 28 9 35 20
11 18 10 19 -18 13 -19 -3 -30 -1 -30 6 0 6 10 11 23 11 17 0 19 2 7 9 -8 6
-27 7 -42 4 -17 -3 -28 -1 -28 6 0 6 8 12 18 12 22 2 -36 17 -63 16 -16 0 -16
-1 3 -4z"/>
<path d="M2150 2630 c-9 -6 -10 -10 -3 -10 6 0 15 5 18 10 8 12 4 12 -15 0z"/>
<path d="M2200 2529 c0 -5 5 -7 10 -4 6 3 10 8 10 11 0 2 -4 4 -10 4 -5 0 -10
-5 -10 -11z"/>
<path d="M2290 2515 c0 -8 4 -15 8 -15 5 0 9 7 9 15 0 8 -4 15 -9 15 -4 0 -8
-7 -8 -15z"/>
<path d="M2511 2523 c-22 -9 -73 -61 -64 -66 4 -2 26 13 48 35 40 38 42 41 16
31z"/>
<path d="M2165 2460 c-3 -5 -1 -10 4 -10 6 0 11 5 11 10 0 6 -2 10 -4 10 -3 0
-8 -4 -11 -10z"/>
<path d="M2450 2382 l5 -47 3 39 c2 21 0 42 -5 47 -4 4 -6 -13 -3 -39z"/>
<path d="M2000 2385 c-19 -14 -29 -25 -23 -25 7 0 15 5 18 10 3 6 19 10 36 10
19 0 29 5 29 15 0 21 -20 18 -60 -10z"/>
<path d="M2126 2225 c4 -8 11 -15 16 -15 6 0 5 6 -2 15 -7 8 -14 15 -16 15 -2
0 -1 -7 2 -15z"/>
<path d="M1172 2110 c0 -19 2 -27 5 -17 2 9 2 25 0 35 -3 9 -5 1 -5 -18z"/>
<path d="M1180 2056 c0 -8 4 -17 9 -20 5 -4 7 3 4 14 -6 23 -13 26 -13 6z"/>
<path d="M1268 1953 c13 -13 28 -23 35 -23 7 0 3 6 -8 12 -11 6 -27 16 -35 22
-9 6 -5 1 8 -11z"/>
<path d="M2801 1934 c0 -11 3 -14 6 -6 3 7 2 16 -1 19 -3 4 -6 -2 -5 -13z"/>
<path d="M2801 1859 c-7 -27 -11 -52 -9 -54 2 -3 10 18 17 46 7 27 11 52 9 54
-2 3 -10 -18 -17 -46z"/>
<path d="M2770 1849 c-6 -11 -10 -25 -7 -32 2 -6 9 3 15 21 12 36 8 42 -8 11z"/>
<path d="M2741 1768 c-6 -18 -13 -53 -16 -78 -4 -31 1 -22 14 30 20 77 21 107
2 48z"/>
<path d="M2776 1753 c-3 -21 -8 -76 -11 -123 -4 -76 -3 -73 10 34 14 114 15
169 1 89z"/>
<path d="M2711 1624 c0 -11 3 -14 6 -6 3 7 2 16 -1 19 -3 4 -6 -2 -5 -13z"/>
<path d="M2772 1525 c0 -11 4 -31 8 -45 6 -20 8 -21 8 -5 0 11 -4 31 -8 45 -6
20 -8 21 -8 5z"/>
<path d="M1171 1444 c0 -11 3 -14 6 -6 3 7 2 16 -1 19 -3 4 -6 -2 -5 -13z"/>
<path d="M2790 1442 c0 -14 28 -72 35 -72 5 0 -4 26 -22 60 -7 14 -13 19 -13
12z"/>
<path d="M1163 1375 c0 -22 2 -30 4 -17 2 12 2 30 0 40 -3 9 -5 -1 -4 -23z"/>
<path d="M4236 1185 c-9 -26 -7 -32 5 -12 6 10 9 21 6 23 -2 3 -7 -2 -11 -11z"/>
<path d="M4202 1110 c-7 -11 -8 -20 -3 -20 9 0 24 30 18 36 -1 2 -8 -6 -15
-16z"/>
<path d="M1937 127 c-92 -142 -98 -127 48 -127 69 0 125 2 125 4 0 2 -22 41
-48 87 -27 46 -53 92 -59 103 -9 16 -17 8 -66 -67z"/>
</g>
</svg>
