<?xml version="1.0" standalone="no"?>
<!DOCTYPE svg PUBLIC "-//W3C//DTD SVG 20010904//EN"
 "http://www.w3.org/TR/2001/REC-SVG-20010904/DTD/svg10.dtd">
<svg version="1.0" xmlns="http://www.w3.org/2000/svg"
 width="976.000000pt" height="976.000000pt" viewBox="0 0 976.000000 976.000000"
 preserveAspectRatio="xMidYMid meet">
<metadata>
Created by potrace 1.14, written by Peter Selinger 2001-2017
</metadata>
<g transform="translate(0.000000,976.000000) scale(0.100000,-0.100000)"
fill="#000000" stroke="none">
<path d="M4570 9553 c-70 -4 -212 -29 -314 -54 -82 -21 -280 -101 -306 -124
-8 -7 -47 -29 -86 -48 -74 -37 -121 -81 -153 -145 -11 -21 -59 -72 -108 -114
-49 -41 -104 -97 -121 -124 -18 -26 -58 -77 -90 -112 -68 -76 -131 -167 -138
-202 -9 -42 -41 -141 -69 -215 -30 -78 -52 -147 -59 -186 -3 -14 -15 -36 -26
-49 -11 -13 -20 -28 -20 -34 0 -14 -25 -36 -60 -54 -14 -7 -70 -39 -125 -72
-55 -33 -115 -67 -134 -76 -42 -19 -362 -229 -434 -285 -190 -145 -297 -245
-381 -354 -107 -137 -154 -269 -136 -380 9 -55 29 -105 42 -105 4 0 8 -6 8
-13 0 -16 52 -67 68 -67 7 0 12 -4 12 -8 0 -5 18 -15 40 -22 22 -7 40 -16 40
-20 0 -3 -17 -12 -37 -20 -58 -20 -176 -75 -306 -141 -65 -33 -123 -57 -129
-53 -6 4 -8 3 -5 -3 6 -9 -43 -53 -58 -53 -12 0 -99 -73 -149 -125 -115 -117
-129 -251 -38 -368 38 -49 170 -176 220 -211 88 -61 201 -114 307 -143 86 -23
120 -27 240 -27 149 -1 196 3 291 28 32 8 80 18 107 21 26 4 50 11 53 16 3 5
13 9 22 9 49 0 -125 -66 -228 -86 -125 -24 -517 -184 -528 -215 -2 -5 -9 -9
-15 -9 -7 0 -38 -20 -69 -45 -32 -25 -60 -45 -64 -45 -3 0 -54 -48 -113 -107
-108 -109 -190 -211 -252 -313 -18 -30 -36 -57 -39 -60 -8 -6 -110 -215 -110
-224 0 -4 -11 -31 -24 -59 -36 -81 -88 -239 -132 -405 -20 -76 -18 -188 5
-237 85 -185 365 -213 881 -88 97 23 176 45 225 63 11 4 49 15 84 24 35 9 73
23 85 31 11 8 30 15 41 15 12 0 25 4 31 8 5 4 27 14 49 21 63 21 145 62 145
72 0 5 14 9 31 9 16 0 76 20 132 44 56 24 134 54 172 66 39 12 77 26 85 30 22
10 80 23 80 17 0 -5 -106 -58 -312 -157 -49 -23 -88 -45 -88 -50 0 -6 -11 -12
-25 -16 -14 -3 -25 -10 -25 -16 0 -5 -4 -7 -9 -4 -5 3 -24 -5 -44 -18 -19 -13
-46 -27 -58 -31 -44 -14 -137 -64 -142 -77 -4 -9 -6 -9 -6 2 -1 10 -5 9 -15
-6 -8 -11 -33 -26 -55 -34 -23 -7 -41 -17 -41 -22 0 -5 -6 -6 -12 -2 -7 4 -10
3 -5 -1 9 -10 -21 -45 -40 -45 -31 0 -275 -192 -394 -310 -47 -47 -103 -107
-125 -133 -57 -70 -127 -195 -158 -284 -15 -43 -32 -87 -36 -98 -5 -11 -13
-50 -19 -86 -28 -173 -1 -288 89 -379 63 -63 93 -81 196 -115 135 -45 438 -58
839 -37 113 6 204 7 209 2 15 -15 -3 -59 -39 -99 -19 -21 -35 -43 -35 -48 0
-5 -9 -19 -20 -31 -25 -27 -100 -142 -100 -154 0 -5 -6 -16 -14 -23 -24 -25
-49 -150 -42 -213 4 -31 7 -65 8 -74 1 -10 5 -18 9 -18 3 0 35 -35 70 -77 91
-110 187 -193 222 -193 8 0 22 -12 32 -26 9 -15 12 -23 6 -20 -6 4 -11 5 -11
2 0 -6 124 -62 128 -58 1 1 15 -4 30 -12 34 -17 189 -65 257 -78 28 -5 57 -12
65 -15 8 -2 45 -6 83 -8 57 -3 67 -1 67 13 0 12 3 13 8 5 21 -34 73 -37 322
-18 45 4 300 49 320 58 8 3 44 12 80 20 36 9 127 31 202 51 76 20 151 36 168
36 16 0 30 4 30 9 0 5 17 11 38 14 63 9 126 24 155 36 16 6 57 13 91 15 35 2
76 11 92 19 16 8 44 15 63 15 19 0 37 5 40 10 8 13 78 32 116 32 17 0 35 4 40
8 12 10 94 30 147 36 21 2 41 7 46 10 15 9 362 77 401 78 20 1 41 7 46 14 6 6
53 16 105 22 80 9 99 8 118 -5 l24 -15 -34 -23 c-18 -14 -38 -29 -45 -35 -7
-5 -17 -10 -23 -10 -16 0 -134 -61 -138 -71 -2 -5 -10 -9 -18 -9 -7 0 -39 -12
-71 -26 -32 -15 -80 -37 -108 -49 -27 -13 -89 -42 -137 -65 -49 -23 -92 -39
-97 -36 -5 4 -11 2 -13 -3 -1 -5 -10 -11 -18 -13 -8 -2 -17 -6 -20 -10 -3 -4
-15 -9 -25 -11 -11 -2 -42 -14 -69 -26 -27 -12 -51 -19 -54 -16 -3 2 -10 -2
-16 -11 -7 -8 -31 -18 -54 -21 -23 -3 -42 -9 -42 -13 0 -4 -16 -11 -35 -14
-19 -4 -35 -11 -35 -15 0 -10 -70 -38 -117 -47 -18 -4 -33 -10 -33 -14 0 -7
-56 -22 -64 -17 -1 1 -10 -4 -19 -12 -9 -7 -24 -11 -32 -7 -8 3 -15 1 -15 -4
0 -5 -7 -6 -17 -3 -10 4 -14 2 -10 -4 7 -12 -61 -41 -117 -50 -20 -3 -36 -9
-36 -13 0 -4 -8 -10 -17 -13 -10 -3 -48 -17 -85 -31 -38 -14 -68 -22 -68 -18
0 4 -4 2 -8 -4 -4 -5 -29 -18 -57 -28 -27 -11 -87 -36 -131 -57 -45 -22 -86
-39 -91 -39 -5 0 -18 -9 -28 -20 -10 -11 -21 -18 -24 -15 -9 5 -58 -37 -58
-50 0 -5 -10 -15 -22 -21 -12 -6 -23 -15 -24 -20 -1 -5 -6 -8 -11 -6 -5 2 -6
-4 -3 -12 4 -9 2 -18 -3 -21 -4 -3 -18 -34 -30 -70 -18 -55 -20 -71 -11 -120
12 -64 17 -75 35 -75 7 0 37 -12 67 -26 93 -45 188 -57 459 -58 135 -1 266 3
293 7 53 9 62 29 20 45 -16 6 -37 14 -48 18 -11 4 -23 7 -26 6 -3 0 -37 8 -75
18 -138 38 -220 66 -261 89 -36 21 -41 27 -37 53 4 35 22 60 37 51 5 -3 17 3
26 14 16 20 121 63 154 63 9 0 17 4 17 8 0 10 81 32 118 32 15 0 32 4 37 9 13
11 97 31 134 31 17 0 31 4 31 9 0 5 12 11 28 14 48 9 255 64 321 86 35 11 77
21 93 21 15 0 36 4 46 9 20 11 177 59 207 63 11 2 22 6 25 10 3 4 21 8 40 10
19 1 50 10 69 19 18 10 55 23 82 30 27 7 49 16 49 21 0 4 6 8 13 8 26 0 147
42 147 51 0 5 11 9 25 9 13 0 39 6 57 14 18 8 60 20 93 27 33 7 63 17 66 22 3
5 25 11 48 14 22 3 41 10 41 14 0 5 13 9 30 9 16 0 46 7 67 16 56 24 72 31
133 49 53 17 73 24 152 59 20 9 42 16 50 16 7 0 23 6 34 14 11 8 37 17 57 21
20 4 41 13 48 21 6 8 18 14 25 14 8 0 31 9 51 20 21 11 45 20 55 20 9 0 20 4
23 10 3 5 13 10 22 10 9 0 24 6 32 13 9 8 37 21 64 31 26 10 47 22 47 27 0 5
11 9 24 9 14 0 28 4 31 10 3 5 26 18 50 29 24 10 51 31 60 45 10 14 24 26 32
26 19 0 143 119 143 137 0 7 4 13 10 13 11 0 30 65 30 107 0 48 -44 166 -76
204 -53 61 -92 97 -114 104 -13 4 -36 20 -53 36 -16 16 -35 29 -40 29 -6 0
-30 9 -54 21 -24 11 -69 28 -101 36 -138 36 -216 42 -502 43 -157 0 -294 1
-305 2 -38 5 -180 -13 -258 -33 -43 -11 -102 -21 -132 -23 -29 -2 -59 -7 -65
-11 -6 -4 -59 -13 -118 -20 -115 -14 -125 -16 -247 -45 -44 -10 -123 -28 -175
-39 -52 -11 -205 -48 -340 -81 -468 -116 -649 -159 -1025 -246 -33 -8 -98 -23
-145 -34 -106 -26 -221 -49 -280 -57 -25 -3 -50 -10 -57 -15 -7 -5 -14 -5 -18
2 -7 12 18 40 37 40 7 1 42 16 78 34 122 64 165 84 225 109 33 14 132 55 220
91 161 68 199 83 278 111 23 9 56 22 72 29 17 8 66 26 110 41 44 15 91 33 105
40 14 7 44 16 67 20 24 4 45 10 48 15 2 4 51 22 107 40 57 17 119 38 138 45
84 31 304 96 510 150 129 33 199 49 380 86 58 11 113 25 122 30 10 5 24 6 32
3 8 -3 24 0 36 6 12 6 34 13 48 15 75 10 187 36 196 45 5 5 21 10 36 10 14 0
72 13 130 29 58 15 132 34 165 40 33 7 90 22 127 33 36 11 78 21 92 22 14 0
26 4 26 9 0 4 9 7 19 7 11 0 51 11 89 25 38 14 81 25 96 25 14 0 34 4 44 10
29 17 225 79 233 74 4 -2 9 0 11 5 1 6 14 11 28 14 14 2 43 11 64 20 22 10 41
15 44 13 2 -3 11 1 19 9 8 8 28 15 44 15 16 0 29 4 29 8 0 8 78 39 120 47 14
3 30 12 36 20 6 8 18 15 26 15 12 0 171 73 238 109 8 4 46 25 84 45 162 88
294 202 342 296 36 72 38 146 3 214 -13 27 -29 51 -36 53 -7 3 -13 9 -13 15 0
16 -113 121 -176 163 -32 22 -61 42 -64 45 -14 16 -185 82 -260 102 -73 18
-112 22 -275 22 -104 0 -221 -5 -260 -11 -38 -6 -104 -16 -146 -22 -42 -6
-103 -20 -134 -31 -66 -23 -68 -23 -61 -11 3 4 26 14 51 21 25 7 45 16 45 20
0 4 10 10 23 13 43 10 132 47 135 57 2 6 12 10 23 10 11 0 22 7 25 15 4 8 16
15 28 15 12 0 26 4 32 9 5 5 41 26 79 46 92 50 254 156 308 203 23 20 62 53
86 72 49 40 196 188 237 240 16 19 31 37 34 40 3 3 16 20 29 38 13 18 36 47
52 65 16 17 29 37 29 44 0 7 4 13 8 13 5 0 19 19 33 41 13 23 31 52 39 64 139
212 298 584 378 885 11 41 30 109 41 152 26 95 27 192 3 255 -24 63 -98 160
-136 180 -46 24 -134 42 -201 42 -154 1 -477 -63 -735 -144 -153 -49 -174 -42
-35 11 251 96 433 221 532 365 42 61 86 153 120 252 24 72 28 96 28 207 0 115
-2 130 -27 182 -37 80 -87 130 -171 172 -138 69 -155 71 -687 71 -308 0 -476
4 -477 10 -1 6 8 23 20 39 12 16 41 54 64 85 23 31 51 67 62 81 31 41 88 150
112 214 17 46 20 72 16 120 -6 76 -27 116 -91 181 -70 69 -91 85 -166 126
-121 65 -210 90 -418 114 l-124 15 -55 50 c-30 27 -59 50 -64 50 -5 0 -9 7 -9
15 0 16 40 28 139 44 88 14 191 48 220 72 23 19 23 21 7 37 -14 15 -40 17
-184 17 -92 0 -219 -4 -282 -9 l-115 -9 -22 40 c-12 21 -31 47 -43 58 -11 10
-20 23 -20 29 -1 19 -72 84 -156 144 -139 98 -163 117 -164 129 0 6 -14 14
-30 18 -17 4 -28 10 -25 15 5 8 -26 24 -50 25 -13 1 -120 41 -162 61 -30 13
-54 20 -173 45 -120 25 -457 36 -690 22z m-1644 -1908 c9 -22 -10 -40 -58 -55
-24 -7 -52 -18 -63 -26 -11 -8 -25 -14 -32 -14 -19 0 -16 30 5 36 47 16 122
55 122 64 0 16 20 12 26 -5z m4764 -445 c-26 -10 -63 -28 -83 -39 -21 -12 -44
-21 -52 -21 -8 0 -15 -4 -15 -10 0 -5 -5 -10 -11 -10 -19 0 -229 -144 -229
-157 0 -6 -25 -24 -56 -38 -51 -24 -66 -27 -149 -23 -100 3 -132 17 -115 48 9
17 202 117 315 163 78 31 230 74 325 91 104 19 123 18 70 -4z m-444 -3720
c-21 -11 -54 -21 -72 -22 -19 -1 -34 -7 -34 -13 0 -11 -110 -47 -143 -46 -9 0
-15 -4 -12 -9 3 -5 -9 -12 -27 -15 -18 -4 -80 -23 -138 -41 -58 -19 -115 -34
-128 -34 -12 0 -30 -4 -40 -10 -15 -8 -81 -23 -267 -60 -27 -6 -79 -17 -115
-26 -36 -8 -96 -22 -135 -30 -38 -9 -77 -20 -86 -24 -8 -5 -42 -15 -75 -23
-32 -8 -183 -46 -334 -85 -300 -77 -389 -97 -397 -88 -3 2 21 12 53 22 33 9
70 22 84 30 31 16 247 94 263 94 7 1 30 9 52 20 22 11 46 19 53 20 7 0 20 4
30 9 52 28 343 121 377 121 13 0 26 4 29 9 4 5 24 12 46 16 22 4 38 11 34 16
-3 5 4 9 16 9 11 0 31 6 43 14 22 14 128 33 156 27 8 -1 17 2 20 7 3 5 76 22
161 36 85 15 175 32 200 37 106 23 330 56 400 58 22 0 20 -3 -14 -19z m-4555
-460 c71 -14 79 -24 43 -55 -30 -26 -141 -86 -184 -100 -23 -7 -79 -42 -90
-56 -10 -13 -83 -39 -111 -39 -15 0 -31 -4 -34 -10 -3 -5 -26 -10 -50 -10 -24
0 -55 -4 -68 -9 -14 -6 -54 -12 -89 -16 -52 -4 -59 -3 -38 6 24 11 68 33 121
62 58 30 149 91 149 98 0 5 6 9 13 9 7 0 28 16 47 35 37 38 79 61 145 81 52
16 80 16 146 4z"/>
</g>
</svg>
